# xmcd CD Database Entry
#
# Track frame offsets:
# 150
# 25377
# 45252
# 66955
# 87707
# 110910
# 129300
# 146307
# 166715
# 184325
# 207655
# 235092
#
# Disc length: 3347 seconds
#
# Revision: 1
# Processed by: cddbd v1.4PL0 Copyright (c) Steve Scherf et al.
# Submitted via: tcd 2.0b
#
DISCID=aa0d110c
DTITLE=Sara Evans - Born To Fly
DYEAR=2000
DGENRE=Country
TTITLE0=Born To Fly
TTITLE1=Saints and Angels
TTITLE2=I Could Not Ask For More
TTITLE3=I Keep Looking
TTITLE4=I Learned That From You
TTITLE5=Let's Dance
TTITLE6=Why Should I Care
TTITLE7=Four-Thirty
TTITLE8=Show Me The Way To Your Heart
TTITLE9=You Don't
TTITLE10=Every Little Kiss
TTITLE11=You
EXTD=
EXTT0=
EXTT1=
EXTT2=
EXTT3=
EXTT4=
EXTT5=
EXTT6=
EXTT7=
EXTT8=
EXTT9=
EXTT10=
EXTT11=
PLAYORDER=
